# xmcd CD database file
#
# Track frame offsets:
#	182
#	17112
#	31957
#	49937
#	71352
#	95360
#	110535
#	130187
#	145262
#	163157
#	182417
#	190475
#
# Disc length: 2709 seconds
#
# Revision: 1
# Processed by: cddbd v1.5.1PL0 Copyright (c) Steve Scherf et al.
# Submitted via: CDex 1.51
#
DISCID=a40a930c
DTITLE=Rad Segrt - Bear No Malice
DYEAR=1996
DGENRE=Country
TTITLE0=Spin Me
TTITLE1=Beyond All Reasonable Doubt
TTITLE2=Love Can Take Your There
TTITLE3=A Million Things
TTITLE4=Bear No Malice
TTITLE5=Hippy Warriors
TTITLE6=Doing The Sky
TTITLE7=Smile
TTITLE8=Dance On Your Own
TTITLE9=Week In Her Eyes
TTITLE10=Cute
TTITLE11=Disintegrating Man
EXTD=YEAR: 1996
EXTT0=
EXTT1=
EXTT2=
EXTT3=
EXTT4=
EXTT5=
EXTT6=
EXTT7=
EXTT8=
EXTT9=
EXTT10=
EXTT11=
PLAYORDER=
